HIERARCHY
ROOT Hips
{
	OFFSET 0.000000 0.000000 0.000000
	CHANNELS 6 Xposition Yposition Zposition Xrotation Yrotation Zrotation
	JOINT LeftUpLeg_virtual
	{
		OFFSET 0.000000 0.000000 0.000000
		CHANNELS 3 Xrotation Yrotation Zrotation
		JOINT LeftUpLeg
		{
			OFFSET 11.394100 -6.187798 -0.413800
			CHANNELS 3 Xrotation Yrotation Zrotation
			JOINT LeftLeg
			{
				OFFSET 0.430247 -32.302673 3.732800
				CHANNELS 3 Xrotation Yrotation Zrotation
				JOINT LeftFoot
				{
					OFFSET -0.430247 -48.264931 -6.423300
					CHANNELS 3 Xrotation Yrotation Zrotation
					JOINT LeftToeBase
					{
						OFFSET 4.230900 -16.068199 23.438400
						CHANNELS 3 Xrotation Yrotation Zrotation
						JOINT LeftToe_End
						{
							OFFSET 4.510700 0.695400 19.974600
							CHANNELS 3 Xrotation Yrotation Zrotation
							End Site
							{
								OFFSET 0 0 0
							}
						}
					}
				}
			}
		}
	}
	JOINT RightUpLeg_virtual
	{
		OFFSET 0.000000 0.000000 0.000000
		CHANNELS 3 Xrotation Yrotation Zrotation
		JOINT RightUpLeg
		{
			OFFSET -11.333700 -6.187798 -0.413800
			CHANNELS 3 Xrotation Yrotation Zrotation
			JOINT RightLeg
			{
				OFFSET -0.430392 -32.302628 3.733000
				CHANNELS 3 Xrotation Yrotation Zrotation
				JOINT RightFoot
				{
					OFFSET 0.430392 -48.264973 -6.423500
					CHANNELS 3 Xrotation Yrotation Zrotation
					JOINT RightToeBase
					{
						OFFSET -4.230900 -16.068199 23.438400
						CHANNELS 3 Xrotation Yrotation Zrotation
						JOINT RightToe_End
						{
							OFFSET -4.510700 0.695400 19.974600
							CHANNELS 3 Xrotation Yrotation Zrotation
							End Site
							{
								OFFSET 0 0 0
							}
						}
					}
				}
			}
		}
	}
	JOINT Spine_virtual
	{
		OFFSET 0.000000 0.000000 0.000000
		CHANNELS 3 Xrotation Yrotation Zrotation
		JOINT Spine
		{
			OFFSET -0.002400 12.777504 0.315300
			CHANNELS 3 Xrotation Yrotation Zrotation
			JOINT Spine1
			{
				OFFSET -0.002067 5.816869 0.032633
				CHANNELS 3 Xrotation Yrotation Zrotation
				JOINT Spine1_split
				{
					OFFSET -0.002067 5.816869 0.032633
					CHANNELS 3 Xrotation Yrotation Zrotation
					JOINT Spine2
					{
						OFFSET -0.002067 5.816869 0.032633
						CHANNELS 3 Xrotation Yrotation Zrotation
						JOINT Neck_virtual
						{
							OFFSET 0.000000 0.000000 0.000000
							CHANNELS 3 Xrotation Yrotation Zrotation
							JOINT Neck
							{
								OFFSET -0.003700 21.199493 -0.826900
								CHANNELS 3 Xrotation Yrotation Zrotation
								JOINT Head
								{
									OFFSET 0.000000 20.442200 4.834800
									CHANNELS 3 Xrotation Yrotation Zrotation
									JOINT HeadTop_End
									{
										OFFSET 0.000000 34.668396 4.968400
										CHANNELS 3 Xrotation Yrotation Zrotation
										End Site
										{
											OFFSET 0 0 0
										}
									}
								}
							}
						}
						JOINT LeftShoulder_virtual
						{
							OFFSET 0.000000 0.000000 0.000000
							CHANNELS 3 Xrotation Yrotation Zrotation
							JOINT LeftShoulder
							{
								OFFSET 3.288150 8.794197 -1.372250
								CHANNELS 3 Xrotation Yrotation Zrotation
								JOINT LeftShoulder_split
								{
									OFFSET 3.288150 8.794197 -1.372250
									CHANNELS 3 Xrotation Yrotation Zrotation
									JOINT LeftArm
									{
										OFFSET 11.953299 -2.279007 -0.146200
										CHANNELS 3 Xrotation Yrotation Zrotation
										JOINT LeftForeArm
										{
											OFFSET 18.448900 0.000000 0.000000
											CHANNELS 3 Xrotation Yrotation Zrotation
											JOINT LeftHand
											{
												OFFSET 29.527798 0.000000 0.000000
												CHANNELS 3 Xrotation Yrotation Zrotation
												End Site
												{
													OFFSET 0 0 0
												}
											}
										}
									}
								}
							}
						}
						JOINT RightShoulder_virtual
						{
							OFFSET 0.000000 0.000000 0.000000
							CHANNELS 3 Xrotation Yrotation Zrotation
							JOINT RightShoulder
							{
								OFFSET -3.249400 8.794197 -1.372250
								CHANNELS 3 Xrotation Yrotation Zrotation
								JOINT RightShoulder_split
								{
									OFFSET -3.249400 8.794197 -1.372250
									CHANNELS 3 Xrotation Yrotation Zrotation
									JOINT RightArm
									{
										OFFSET -11.953299 -2.279007 -0.146200
										CHANNELS 3 Xrotation Yrotation Zrotation
										JOINT RightForeArm
										{
											OFFSET -18.448900 0.000000 0.000000
											CHANNELS 3 Xrotation Yrotation Zrotation
											JOINT RightHand
											{
												OFFSET -29.527802 0.000000 0.000000
												CHANNELS 3 Xrotation Yrotation Zrotation
												End Site
												{
													OFFSET 0 0 0
												}
											}
										}
									}
								}
							}
						}
					}
				}
			}
		}
	}
}
MOTION
Frames: 7
Frame Time: 0.03333333
1.959717 74.413963 -48.334419 0.000000 0.000000 0.000000 21.536741 -76.622947 19.284033 -48.121698 -9.123431 24.990405 79.008780 6.336115 -1.292232 -19.410809 6.828044 -30.074020 -6.645681 -3.403897 3.482357 0.000000 0.000000 0.000000 24.695859 -76.372525 22.692048 -61.789286 3.156963 -13.743837 86.047481 9.733331 -8.146641 -27.099496 -3.946543 3.286152 -1.442088 1.441811 1.316335 0.000000 0.000000 0.000000 30.565964 -80.749611 28.645996 6.811561 11.381560 -4.294184 10.852677 18.066535 -6.414311 0.787549 -6.721457 2.473622 0.000000 0.000000 0.000000 12.485694 17.925859 -7.870547 -0.003485 2.868351 2.311901 5.187836 3.794380 -7.018572 0.000000 0.000000 0.000000 10.108500 18.292917 -7.203948 4.656395 -4.120292 0.293694 3.917952 3.908250 -0.500687 -77.791456 -29.213365 -59.571558 51.609347 -74.682204 49.200895 0.000000 0.000000 0.000000 9.308912 18.358662 -6.623330 5.458333 9.102049 -1.657317 -3.676118 6.146906 -4.590252 -47.191645 -6.116140 29.392848 -15.374590 46.847270 0.481840 0.000000 0.000000 0.000000 
2.202741 74.000458 -48.619446 0.000000 0.000000 0.000000 32.997498 -73.620314 29.894167 -55.259926 -10.143341 25.457937 80.644125 5.822508 -1.685592 -18.837204 5.918315 -28.761408 -7.255852 -3.741295 3.487255 0.000000 0.000000 0.000000 33.433294 -73.759035 31.331918 -64.348838 3.288834 -14.470041 86.432403 9.421431 -6.499583 -30.077609 -4.012522 2.625532 0.614930 1.058478 0.779266 0.000000 0.000000 0.000000 40.404524 -77.035859 37.687044 7.185958 11.073144 -4.119703 11.504126 17.372818 -6.518985 1.098849 -7.223677 2.388448 0.000000 0.000000 0.000000 12.424168 17.361945 -7.593576 -0.127558 4.900826 2.715734 2.031470 6.864180 -10.567659 0.000000 0.000000 0.000000 10.506421 17.616649 -7.367390 3.710838 -4.546044 -1.795144 2.431724 3.739351 -1.099475 -63.374272 -20.712376 -54.574984 49.644106 -71.451695 46.212141 0.000000 0.000000 0.000000 9.660159 17.876415 -6.478796 4.840762 9.022528 1.406934 -3.146919 6.386802 -5.087776 -41.751010 -12.119331 30.022079 -14.937781 46.701357 4.224801 0.000000 0.000000 0.000000 
2.376838 74.114555 -48.695473 0.000000 0.000000 0.000000 40.779317 -70.850345 37.312094 -61.679006 -10.635886 25.360540 81.205847 5.120449 -1.752561 -17.473752 4.877164 -26.766898 -7.820498 -4.096555 3.326093 0.000000 0.000000 0.000000 39.179280 -71.145067 37.292389 -66.698170 4.272375 -15.351564 86.076318 9.669992 -5.490739 -30.681958 -3.492816 4.029711 0.605518 0.767732 0.040645 0.000000 0.000000 0.000000 44.669266 -73.337216 41.374178 7.265475 10.799994 -3.503295 12.032140 16.681315 -6.417802 1.355568 -7.360587 1.993497 0.000000 0.000000 0.000000 12.251471 16.746712 -7.107509 -0.578069 6.769042 2.978271 -0.273823 10.013718 -13.944649 0.000000 0.000000 0.000000 10.808721 16.919183 -7.315448 3.076752 -4.071570 -3.313268 1.428836 3.357946 -1.698163 -49.540479 -11.786925 -51.573471 39.481038 -67.990736 36.049339 0.000000 0.000000 0.000000 9.954775 17.307595 -6.217363 4.437399 8.981681 4.061693 -2.282172 7.271319 -5.091918 -34.866029 -19.211784 32.478526 -14.497604 47.390021 6.980020 0.000000 0.000000 0.000000 
2.571567 74.371475 -48.816711 0.000000 0.000000 0.000000 44.437658 -68.385377 41.199858 -66.771882 -10.490307 24.646183 80.942919 4.239201 -1.429874 -15.617941 4.099543 -24.760068 -7.504949 -4.305676 2.998543 0.000000 0.000000 0.000000 42.464502 -68.805864 41.023711 -68.277897 5.917094 -16.091682 85.127045 10.240355 -5.214953 -30.260870 -2.642567 6.708847 -0.385350 0.500243 -0.482171 0.000000 0.000000 0.000000 45.786825 -70.273679 42.323243 7.033687 10.540060 -2.622754 12.432631 16.019159 -6.194734 1.350634 -7.023354 1.775637 0.000000 0.000000 0.000000 11.995823 16.089296 -6.539151 -1.264021 8.358770 3.076232 -1.584568 12.775214 -16.849906 0.000000 0.000000 0.000000 11.048554 16.209495 -7.095861 2.702757 -3.095198 -4.186018 1.204055 2.650833 -2.208623 -36.829032 -4.020333 -51.691497 27.689602 -64.348182 24.768648 0.000000 0.000000 0.000000 10.285884 16.691901 -5.904152 4.146931 9.265779 6.529961 -1.487596 8.037452 -4.784277 -25.963180 -26.042084 37.190920 -13.890184 47.573336 8.511903 0.000000 0.000000 0.000000 
2.637990 74.605476 -48.764214 0.000000 0.000000 0.000000 44.174805 -66.274282 41.722361 -70.028564 -9.711983 23.431408 79.565447 3.327600 -0.847063 -13.422783 3.811362 -23.534843 -6.411914 -4.228011 2.474633 0.000000 0.000000 0.000000 43.237594 -66.636166 42.344236 -68.173477 7.719044 -16.591455 83.509670 10.437815 -5.249316 -30.107931 -1.978792 8.916719 -0.778124 0.207451 -0.502647 0.000000 0.000000 0.000000 44.423742 -67.949399 41.307331 6.645445 10.192360 -1.813828 12.704065 15.361867 -5.957161 1.240131 -6.206138 1.657608 0.000000 0.000000 0.000000 11.757246 15.391941 -5.997149 -2.079971 9.617181 3.031927 -2.014177 14.862797 -19.074569 0.000000 0.000000 0.000000 11.253447 15.486709 -6.820446 2.489728 -1.999763 -4.495295 1.527573 2.019504 -2.611319 -26.007661 1.677988 -54.795527 17.637879 -60.358238 15.220163 0.000000 0.000000 0.000000 10.691601 16.036608 -5.585619 3.834952 9.869725 8.821025 -0.853433 8.504497 -4.236134 -16.189271 -31.252401 43.273941 -13.164273 46.458889 8.871670 0.000000 0.000000 0.000000 
2.662642 74.968002 -48.743233 0.000000 0.000000 0.000000 41.561192 -64.522693 40.233981 -71.395722 -8.474460 21.680622 77.176923 2.575386 -0.113503 -11.023115 3.932804 -23.085471 -4.979298 -3.906318 1.758296 0.000000 0.000000 0.000000 41.634699 -64.556305 41.390082 -66.020267 8.988847 -17.042814 81.304516 9.939442 -5.127391 -30.467193 -1.886317 9.797643 0.013781 -0.058036 -0.100412 0.000000 0.000000 0.000000 41.400345 -66.092018 39.005674 6.293229 9.734731 -1.304976 12.873972 14.709460 -5.782906 1.024525 -5.545795 1.853113 0.000000 0.000000 0.000000 11.537200 14.692266 -5.542024 -2.882411 10.544255 2.852150 -1.723047 16.249336 -20.594118 0.000000 0.000000 0.000000 11.414209 14.769328 -6.554907 2.383733 -1.012080 -4.471263 1.638749 1.352276 -2.962284 -17.682093 5.253244 -59.546293 10.622616 -56.080778 8.438320 0.000000 0.000000 0.000000 11.069484 15.367033 -5.308805 3.400537 10.676936 10.892624 -0.400067 8.306446 -3.564587 -7.728106 -34.213401 49.124199 -12.478152 44.055922 8.364932 0.000000 0.000000 0.000000 
2.467703 75.678810 -48.559776 0.000000 0.000000 0.000000 37.564125 -63.027818 37.464175 -70.956738 -6.970546 19.731559 74.182029 2.082883 0.601301 -8.501840 4.080320 -22.870595 -3.612137 -3.503130 0.938942 0.000000 0.000000 0.000000 38.438402 -62.710890 38.899382 -62.054734 9.308853 -17.638407 78.527149 8.928432 -4.831044 -31.203969 -2.388521 9.709910 1.356596 -0.213827 0.440864 0.000000 0.000000 0.000000 36.807726 -64.282530 35.390383 6.057185 9.166492 -1.197149 12.955478 14.048045 -5.678129 0.989813 -5.283509 2.133979 0.000000 0.000000 0.000000 11.359790 14.031450 -5.238665 -3.544379 11.114828 2.554394 -1.063063 16.997814 -21.362516 0.000000 0.000000 0.000000 11.556510 14.071810 -6.324688 2.284813 -0.250670 -4.368107 1.547227 0.838699 -3.256738 -12.223079 7.517418 -64.457622 6.823102 -52.038009 4.481593 0.000000 0.000000 0.000000 11.330438 14.726692 -5.060038 2.876272 11.402325 12.563866 -0.080376 7.536865 -2.806501 -2.177879 -35.399607 53.348910 -12.065781 41.223918 7.552128 0.000000 0.000000 0.000000 
